<svg xmlns="http://www.w3.org/2000/svg" xmlns:xlink="http://www.w3.org/1999/xlink" width="39.735" height="38" viewBox="0 0 39.735 38"><defs><style>.a{fill:url(#a);}.b,.c{stroke:none;}.c{fill:#9a7a31;}</style><linearGradient id="a" x1="0.5" x2="0.5" y2="1" gradientUnits="objectBoundingBox"><stop offset="0" stop-color="#fac72a"/><stop offset="1" stop-color="#efa31f"/></linearGradient></defs><g class="a" transform="translate(-0.001 -1.047)"><path class="b" d="M 8.912899971008301 38.79673767089844 C 8.36421012878418 38.79673767089844 7.821080207824707 38.5410270690918 7.460010051727295 38.11270904541016 C 7.099890232086182 37.68550872802734 6.954470157623291 37.14199829101562 7.050539970397949 36.58230972290039 L 8.762120246887207 26.60124969482422 C 8.895430564880371 25.82636833190918 8.638669967651367 25.03560829162598 8.07526969909668 24.48609924316406 L 0.8235901594161987 17.4176082611084 C 0.2967401444911957 16.90381813049316 0.1180301383137703 16.17934799194336 0.3455901443958282 15.47967910766602 C 0.5729801654815674 14.78050899505615 1.143250107765198 14.30010890960693 1.871040105819702 14.19460868835449 L 11.8927698135376 12.73830890655518 C 12.67144012451172 12.62533855438232 13.3441801071167 12.13669872283936 13.69229030609131 11.43118858337402 L 18.17387962341309 2.350318908691406 C 18.49912071228027 1.690568923950195 19.13232040405273 1.296748876571655 19.86776924133301 1.296748876571655 C 20.60325050354004 1.296748876571655 21.23670959472656 1.690608859062195 21.56226921081543 2.350308895111084 L 26.04387092590332 11.43120861053467 C 26.39199066162109 12.13669872283936 27.06472969055176 12.62533855438232 27.84345054626465 12.73831844329834 L 37.86502838134766 14.19459915161133 C 38.59318161010742 14.30048847198486 39.16357040405273 14.78140926361084 39.39081192016602 15.48103904724121 C 39.61798095703125 16.18043899536133 39.43920135498047 16.90437889099121 38.91259002685547 17.41758918762207 L 31.66094970703125 24.48604965209961 C 31.09748077392578 25.03561973571777 30.84071922302246 25.82637977600098 30.97406005859375 26.60138893127441 L 32.68561172485352 36.58226776123047 C 32.78165054321289 37.14178848266602 32.63628005981445 37.68510055541992 32.27629852294922 38.11215972900391 C 31.91515922546387 38.54058837890625 31.37183952331543 38.79639053344727 30.82291984558105 38.79641723632812 C 30.51923942565918 38.79644012451172 30.22332954406738 38.72187805175781 29.94341087341309 38.5748176574707 L 20.98027038574219 33.86285018920898 C 20.6386604309082 33.68341064453125 20.25410079956055 33.58857727050781 19.86808013916016 33.58857727050781 C 19.4820499420166 33.58857727050781 19.09749031066895 33.68341064453125 18.75595092773438 33.86281967163086 L 9.792690277099609 38.57484817504883 C 9.512700080871582 38.72209930419922 9.216710090637207 38.79673767089844 8.912899971008301 38.79673767089844 Z"/><path class="c" d="M 19.86775970458984 1.546749114990234 C 19.22968101501465 1.546749114990234 18.68029975891113 1.888427734375 18.39806938171387 2.460948944091797 L 13.91649055480957 11.54181861877441 C 13.53194046020508 12.32115936279297 12.78879928588867 12.86092948913574 11.92872047424316 12.98569869995117 L 1.906909942626953 14.4420280456543 C 1.275421142578125 14.53355979919434 0.7806320190429688 14.95037841796875 0.5833282470703125 15.55700874328613 C 0.3858718872070312 16.16412925720215 0.5409507751464844 16.79277801513672 0.9980888366699219 17.23857879638672 L 8.249820709228516 24.30712890625 C 8.872159957885742 24.91411972045898 9.155769348144531 25.78762817382812 9.008529663085938 26.64350891113281 L 7.296928405761719 36.62459945678711 C 7.213550567626953 37.11042022705078 7.339340209960938 37.58168029785156 7.651149749755859 37.95156860351562 C 7.965311050415039 38.32424926757812 8.436990737915039 38.54673767089844 8.912900924682617 38.54673767089844 C 9.175760269165039 38.54673767089844 9.432600021362305 38.48175811767578 9.676361083984375 38.35356903076172 L 18.63968086242676 33.64149856567383 C 19.01692008972168 33.44332885742188 19.44169044494629 33.33857727050781 19.86807060241699 33.33857727050781 C 20.2944393157959 33.33857727050781 20.71920967102051 33.44332885742188 21.09659957885742 33.64156723022461 L 30.0596809387207 38.35350036621094 C 30.30334091186523 38.48151016235352 30.56014060974121 38.54641723632812 30.82292938232422 38.54641723632812 C 31.29903030395508 38.54641723632812 31.7708797454834 38.32386779785156 32.08510971069336 37.95111083984375 C 32.39682006835938 37.58132934570312 32.52257919311523 37.11023712158203 32.43920135498047 36.62452697753906 L 30.72768020629883 26.64377975463867 C 30.58037948608398 25.78762817382812 30.86399078369141 24.91410827636719 31.4864501953125 24.3070182800293 L 38.73810195922852 17.23854827880859 C 39.19503021240234 16.79324913024902 39.35013961791992 16.16510963439941 39.15304183959961 15.55825805664062 C 38.95586013793945 14.95116806030273 38.46089935302734 14.53387832641602 37.82907867431641 14.4419994354248 L 27.80755996704102 12.98571968078613 C 26.94736099243164 12.86093902587891 26.20423126220703 12.32115936279297 25.81967926025391 11.54184913635254 L 21.33806991577148 2.4609375 C 21.05558967590332 1.888500213623047 20.50593948364258 1.546749114990234 19.86775970458984 1.546749114990234 M 19.86776351928711 1.046749114990234 C 20.63082504272461 1.046749114990234 21.39398956298828 1.444389343261719 21.78644943237305 2.239669799804688 L 26.26805114746094 11.3205680847168 C 26.5797004699707 11.9521484375 27.18228149414062 12.38977813720703 27.87934112548828 12.49089813232422 L 37.90098190307617 13.94719886779785 C 39.65649032592773 14.20247840881348 40.35686874389648 16.3591480255127 39.08707046508789 17.59662818908691 L 31.83544921875 24.66506958007812 C 31.33150100708008 25.15657806396484 31.1010799407959 25.86524963378906 31.22043991088867 26.55899810791016 L 32.93201065063477 36.54001998901367 C 33.16942596435547 37.92317962646484 32.0699462890625 39.04641723632812 30.82293510437012 39.04641723632812 C 30.49396514892578 39.04641723632812 30.15482902526855 38.96829223632812 29.82714080810547 38.79613876342773 L 20.86393928527832 34.08413696289062 C 20.55229568481445 33.92043304443359 20.21018600463867 33.83858108520508 19.86807441711426 33.83858108520508 C 19.52596473693848 33.83858108520508 19.1838550567627 33.92043304443359 18.8722095489502 34.08413696289062 L 9.909019470214844 38.79613876342773 C 9.581329345703125 38.96846389770508 9.24186897277832 39.0467414855957 8.912897109985352 39.0467414855957 C 7.665882110595703 39.0467414855957 6.566730499267578 37.92317962646484 6.804141998291016 36.54001998901367 L 8.515720367431641 26.55899810791016 C 8.63507080078125 25.86524963378906 8.40464973449707 25.15657806396484 7.900711059570312 24.66506958007812 L 0.6490898132324219 17.59662818908691 C -0.6207084655761719 16.35832977294922 0.07966995239257812 14.20165824890137 1.835178375244141 13.94719886779785 L 11.85682106018066 12.49089813232422 C 12.55388069152832 12.38977813720703 13.15645980834961 11.9521484375 13.46809959411621 11.3205680847168 L 17.94969940185547 2.239669799804688 C 18.34174537658691 1.444389343261719 19.10470199584961 1.046749114990234 19.86776351928711 1.046749114990234 Z"/></g></svg>
