<svg xmlns="http://www.w3.org/2000/svg" width="39.735" height="38" viewBox="0 0 39.735 38"><defs><style>.a{fill:none;opacity:0.3;}.b,.c{stroke:none;}.c{fill:#9a7a31;}</style></defs><g class="a" transform="translate(-0.001 -1.047)"><path class="b" d="M21.786,2.24l4.482,9.081a2.139,2.139,0,0,0,1.611,1.17L37.9,13.947A2.14,2.14,0,0,1,39.087,17.6l-7.252,7.068a2.14,2.14,0,0,0-.615,1.894l1.712,9.981a2.14,2.14,0,0,1-3.1,2.256l-8.963-4.712a2.142,2.142,0,0,0-1.992,0L9.909,38.8A2.14,2.14,0,0,1,6.8,36.54l1.712-9.981A2.14,2.14,0,0,0,7.9,24.665L.649,17.6a2.139,2.139,0,0,1,1.186-3.649l10.022-1.456a2.139,2.139,0,0,0,1.611-1.17L17.95,2.24A2.139,2.139,0,0,1,21.786,2.24Z"/><path class="c" d="M 19.86775970458984 1.546749114990234 C 19.22968101501465 1.546749114990234 18.68029975891113 1.888427734375 18.39806938171387 2.460948944091797 L 13.91649055480957 11.54181861877441 C 13.53194046020508 12.32115936279297 12.78879928588867 12.86092948913574 11.92872047424316 12.98569869995117 L 1.906909942626953 14.4420280456543 C 1.275421142578125 14.53355979919434 0.7806320190429688 14.95037841796875 0.5833282470703125 15.55700874328613 C 0.3858718872070312 16.16412925720215 0.5409507751464844 16.79277801513672 0.9980888366699219 17.23857879638672 L 8.249820709228516 24.30712890625 C 8.872159957885742 24.91411972045898 9.155769348144531 25.78762817382812 9.008529663085938 26.64350891113281 L 7.296928405761719 36.62459945678711 C 7.213550567626953 37.11042022705078 7.339340209960938 37.58168029785156 7.651149749755859 37.95156860351562 C 7.965311050415039 38.32424926757812 8.436990737915039 38.54673767089844 8.912900924682617 38.54673767089844 C 9.175760269165039 38.54673767089844 9.432600021362305 38.48175811767578 9.676361083984375 38.35356903076172 L 18.63968086242676 33.64149856567383 C 19.01692008972168 33.44332885742188 19.44169044494629 33.33857727050781 19.86807060241699 33.33857727050781 C 20.2944393157959 33.33857727050781 20.71920967102051 33.44332885742188 21.09659957885742 33.64156723022461 L 30.0596809387207 38.35350036621094 C 30.30334091186523 38.48151016235352 30.56014060974121 38.54641723632812 30.82292938232422 38.54641723632812 C 31.29903030395508 38.54641723632812 31.7708797454834 38.32386779785156 32.08510971069336 37.95111083984375 C 32.39682006835938 37.58132934570312 32.52257919311523 37.11023712158203 32.43920135498047 36.62452697753906 L 30.72768020629883 26.64377975463867 C 30.58037948608398 25.78762817382812 30.86399078369141 24.91410827636719 31.4864501953125 24.3070182800293 L 38.73810195922852 17.23854827880859 C 39.19503021240234 16.79324913024902 39.35013961791992 16.16510963439941 39.15304183959961 15.55825805664062 C 38.95586013793945 14.95116806030273 38.46089935302734 14.53387832641602 37.82907867431641 14.4419994354248 L 27.80755996704102 12.98571968078613 C 26.94736099243164 12.86093902587891 26.20423126220703 12.32115936279297 25.81967926025391 11.54184913635254 L 21.33806991577148 2.4609375 C 21.05558967590332 1.888500213623047 20.50593948364258 1.546749114990234 19.86775970458984 1.546749114990234 M 19.86776351928711 1.046749114990234 C 20.63082504272461 1.046749114990234 21.39398956298828 1.444389343261719 21.78644943237305 2.239669799804688 L 26.26805114746094 11.3205680847168 C 26.5797004699707 11.9521484375 27.18228149414062 12.38977813720703 27.87934112548828 12.49089813232422 L 37.90098190307617 13.94719886779785 C 39.65649032592773 14.20247840881348 40.35686874389648 16.3591480255127 39.08707046508789 17.59662818908691 L 31.83544921875 24.66506958007812 C 31.33150100708008 25.15657806396484 31.1010799407959 25.86524963378906 31.22043991088867 26.55899810791016 L 32.93201065063477 36.54001998901367 C 33.16942596435547 37.92317962646484 32.0699462890625 39.04641723632812 30.82293510437012 39.04641723632812 C 30.49396514892578 39.04641723632812 30.15482902526855 38.96829223632812 29.82714080810547 38.79613876342773 L 20.86393928527832 34.08413696289062 C 20.55229568481445 33.92043304443359 20.21018600463867 33.83858108520508 19.86807441711426 33.83858108520508 C 19.52596473693848 33.83858108520508 19.1838550567627 33.92043304443359 18.8722095489502 34.08413696289062 L 9.909019470214844 38.79613876342773 C 9.581329345703125 38.96846389770508 9.24186897277832 39.0467414855957 8.912897109985352 39.0467414855957 C 7.665882110595703 39.0467414855957 6.566730499267578 37.92317962646484 6.804141998291016 36.54001998901367 L 8.515720367431641 26.55899810791016 C 8.63507080078125 25.86524963378906 8.40464973449707 25.15657806396484 7.900711059570312 24.66506958007812 L 0.6490898132324219 17.59662818908691 C -0.6207084655761719 16.35832977294922 0.07966995239257812 14.20165824890137 1.835178375244141 13.94719886779785 L 11.85682106018066 12.49089813232422 C 12.55388069152832 12.38977813720703 13.15645980834961 11.9521484375 13.46809959411621 11.3205680847168 L 17.94969940185547 2.239669799804688 C 18.34174537658691 1.444389343261719 19.10470199584961 1.046749114990234 19.86776351928711 1.046749114990234 Z"/></g></svg>
